HIERARCHY
ROOT Hips
{
	OFFSET 0.000000 0.000000 0.000000
	CHANNELS 6 Xposition Yposition Zposition Xrotation Yrotation Zrotation
	JOINT LeftUpLeg_virtual
	{
		OFFSET 0.000000 0.000000 0.000000
		CHANNELS 3 Xrotation Yrotation Zrotation
		JOINT LeftUpLeg
		{
			OFFSET 10.205400 -3.823500 0.155100
			CHANNELS 3 Xrotation Yrotation Zrotation
			JOINT LeftLeg
			{
				OFFSET 0.708757 -12.982077 0.567790
				CHANNELS 3 Xrotation Yrotation Zrotation
				JOINT LeftFoot
				{
					OFFSET -0.708756 -10.717838 -2.184338
					CHANNELS 3 Xrotation Yrotation Zrotation
					JOINT LeftToeBase
					{
						OFFSET 0.108149 -7.191104 7.560241
						CHANNELS 3 Xrotation Yrotation Zrotation
						JOINT LeftToe_End
						{
							OFFSET 0.070230 0.081724 4.490308
							CHANNELS 3 Xrotation Yrotation Zrotation
							End Site
							{
								OFFSET 0 0 0
							}
						}
					}
				}
			}
		}
	}
	JOINT RightUpLeg_virtual
	{
		OFFSET 0.000000 0.000000 0.000000
		CHANNELS 3 Xrotation Yrotation Zrotation
		JOINT RightUpLeg
		{
			OFFSET -10.205400 -3.823500 0.005500
			CHANNELS 3 Xrotation Yrotation Zrotation
			JOINT RightLeg
			{
				OFFSET -0.708756 -12.982134 0.610632
				CHANNELS 3 Xrotation Yrotation Zrotation
				JOINT RightFoot
				{
					OFFSET 0.708754 -10.717769 -1.945823
					CHANNELS 3 Xrotation Yrotation Zrotation
					JOINT RightToeBase
					{
						OFFSET -0.108140 -7.191069 7.372968
						CHANNELS 3 Xrotation Yrotation Zrotation
						JOINT RightToe_End
						{
							OFFSET -0.070227 0.081735 4.479403
							CHANNELS 3 Xrotation Yrotation Zrotation
							End Site
							{
								OFFSET 0 0 0
							}
						}
					}
				}
			}
		}
	}
	JOINT Spine_virtual
	{
		OFFSET 0.000000 0.000000 0.000000
		CHANNELS 3 Xrotation Yrotation Zrotation
		JOINT Spine
		{
			OFFSET 0.000000 6.876099 0.125700
			CHANNELS 3 Xrotation Yrotation Zrotation
			JOINT Spine1
			{
				OFFSET 0.000000 5.730043 0.104720
				CHANNELS 3 Xrotation Yrotation Zrotation
				JOINT Spine1_split
				{
					OFFSET 0.000000 5.730043 0.104720
					CHANNELS 3 Xrotation Yrotation Zrotation
					JOINT Spine2
					{
						OFFSET 0.000000 5.730043 0.104720
						CHANNELS 3 Xrotation Yrotation Zrotation
						JOINT Neck_virtual
						{
							OFFSET 0.000000 0.000000 0.000000
							CHANNELS 3 Xrotation Yrotation Zrotation
							JOINT Neck
							{
								OFFSET 0.000000 10.314075 0.188496
								CHANNELS 3 Xrotation Yrotation Zrotation
								JOINT Head
								{
									OFFSET 0.000000 7.643700 -2.377400
									CHANNELS 3 Xrotation Yrotation Zrotation
									JOINT HeadTop_End
									{
										OFFSET 0.000000 43.788605 -13.619600
										CHANNELS 3 Xrotation Yrotation Zrotation
										End Site
										{
											OFFSET 0 0 0
										}
									}
								}
							}
						}
						JOINT LeftShoulder_virtual
						{
							OFFSET 0.000000 0.000000 0.000000
							CHANNELS 3 Xrotation Yrotation Zrotation
							JOINT LeftShoulder
							{
								OFFSET 2.196100 4.412489 0.087492
								CHANNELS 3 Xrotation Yrotation Zrotation
								JOINT LeftShoulder_split
								{
									OFFSET 2.196100 4.412489 0.087492
									CHANNELS 3 Xrotation Yrotation Zrotation
									JOINT LeftArm
									{
										OFFSET 8.771219 -2.981674 -0.026999
										CHANNELS 3 Xrotation Yrotation Zrotation
										JOINT LeftForeArm
										{
											OFFSET 8.512804 0.000000 -0.000000
											CHANNELS 3 Xrotation Yrotation Zrotation
											JOINT LeftHand
											{
												OFFSET 18.484802 0.000000 -0.000000
												CHANNELS 3 Xrotation Yrotation Zrotation
												End Site
												{
													OFFSET 0 0 0
												}
											}
										}
									}
								}
							}
						}
						JOINT RightShoulder_virtual
						{
							OFFSET 0.000000 0.000000 0.000000
							CHANNELS 3 Xrotation Yrotation Zrotation
							JOINT RightShoulder
							{
								OFFSET -2.196100 4.412496 0.070690
								CHANNELS 3 Xrotation Yrotation Zrotation
								JOINT RightShoulder_split
								{
									OFFSET -2.196100 4.412496 0.070690
									CHANNELS 3 Xrotation Yrotation Zrotation
									JOINT RightArm
									{
										OFFSET -8.771282 -2.981682 -0.094208
										CHANNELS 3 Xrotation Yrotation Zrotation
										JOINT RightForeArm
										{
											OFFSET -8.494598 0.000000 0.000000
											CHANNELS 3 Xrotation Yrotation Zrotation
											JOINT RightHand
											{
												OFFSET -18.483803 0.000000 0.000001
												CHANNELS 3 Xrotation Yrotation Zrotation
												End Site
												{
													OFFSET 0 0 0
												}
											}
										}
									}
								}
							}
						}
					}
				}
			}
		}
	}
}
MOTION
Frames: 4
Frame Time: 0.03333333
-0.014896 28.835203 0.309469 0.000000 0.000000 0.000000 1.737175 -61.025432 4.351704 -32.134835 5.865522 27.991012 44.070856 -8.642751 -8.776457 -15.012906 -0.649161 -10.091026 0.394418 0.715321 1.243419 0.000000 0.000000 0.000000 0.522537 -60.358669 3.888379 -24.263422 -10.854963 -28.462119 43.251370 8.262721 -6.565352 -25.196766 -2.134460 26.528745 3.416104 -1.976601 -1.714428 0.000000 0.000000 0.000000 0.631571 -59.034391 3.673642 11.565727 0.514904 -2.203409 9.045906 -0.826352 -5.495695 1.148594 -4.216257 1.259974 0.000000 0.000000 0.000000 9.941351 -0.541003 -5.474180 -18.694125 19.282739 13.215103 -3.606978 26.611769 -2.258902 0.000000 0.000000 0.000000 9.573253 -0.837025 -5.048602 -5.835443 -10.807838 -4.209655 -0.193144 -3.309514 -1.328927 -18.406409 8.205606 -31.487859 3.979918 -38.350180 2.798857 0.000000 0.000000 0.000000 9.168778 -0.902314 -5.493185 -6.006574 7.334109 3.320612 0.973947 0.092690 1.968996 -40.286426 -18.617036 34.115183 -161.264564 64.737646 161.687353 0.000000 0.000000 0.000000 
-0.052730 28.794453 0.460194 0.000000 0.000000 0.000000 1.508501 -61.318085 4.094552 -32.089485 6.251771 28.255272 44.326169 -8.882195 -8.783089 -15.271243 -0.698026 -10.017514 0.249971 0.734465 1.291121 0.000000 0.000000 0.000000 0.352478 -60.285886 3.659722 -24.000656 -10.845288 -28.241746 43.855186 8.048074 -6.495027 -25.287618 -2.269187 26.050285 3.118473 -1.961541 -1.646839 0.000000 0.000000 0.000000 0.067081 -58.783326 3.116843 11.457122 0.423159 -2.266051 8.801243 -0.817219 -5.565046 0.950068 -3.216936 1.016074 0.000000 0.000000 0.000000 9.170047 -0.534749 -5.576472 -18.082378 19.065802 12.755192 -2.505796 25.981444 -1.796387 0.000000 0.000000 0.000000 9.308327 -0.850588 -5.226159 -5.721033 -10.670929 -4.506140 -0.504148 -2.481244 -1.684866 -18.513390 7.596535 -31.688646 4.212852 -38.676964 3.002829 0.000000 0.000000 0.000000 8.998882 -0.850213 -5.622467 -5.958948 7.360196 3.829800 1.200979 0.453333 2.716844 -38.842316 -18.662293 34.974096 -159.234604 66.015800 159.714507 0.000000 0.000000 0.000000 
-0.122103 28.823654 0.609932 0.000000 0.000000 0.000000 0.957620 -61.639138 3.345188 -32.085299 6.930510 28.766411 44.674987 -9.248163 -8.708761 -15.611617 -0.791137 -9.900393 0.210800 0.798416 1.212940 0.000000 0.000000 0.000000 -0.119868 -60.244973 2.942088 -23.246498 -11.050146 -27.694037 43.991578 7.866642 -6.431160 -24.962559 -2.389183 25.749962 2.523126 -1.993315 -1.634736 0.000000 0.000000 0.000000 -0.582298 -58.464411 2.250479 11.116840 0.452248 -2.250472 8.153775 -0.653780 -5.707965 0.679297 -2.355786 0.681848 0.000000 0.000000 0.000000 7.910216 -0.348515 -5.785110 -16.873175 18.518864 12.385654 0.086539 23.527966 -0.262185 0.000000 0.000000 0.000000 8.639941 -0.731313 -5.475762 -5.698512 -10.428242 -4.847396 -1.251471 -1.680745 -1.859958 -18.653095 6.666103 -32.300122 3.414248 -39.199531 2.387323 0.000000 0.000000 0.000000 8.403847 -0.603267 -5.755761 -5.863610 7.158841 4.675971 1.451671 0.864405 2.385986 -37.108110 -17.847201 36.351479 -155.523517 68.461909 156.015072 0.000000 0.000000 0.000000 
-0.191844 28.942066 0.703800 0.000000 0.000000 0.000000 0.239900 -61.827002 2.294417 -32.005239 7.743044 29.334153 44.698312 -9.627029 -8.572244 -15.755356 -0.919894 -9.851056 0.123687 0.889195 1.059005 0.000000 0.000000 0.000000 -0.653429 -60.229059 1.998747 -22.068044 -11.463790 -26.884273 43.173042 7.744623 -6.377524 -24.300379 -2.433499 25.577762 1.909980 -2.041284 -1.652293 0.000000 0.000000 0.000000 -1.136719 -58.194598 1.313263 10.592050 0.607411 -2.166429 7.235869 -0.358124 -5.874600 0.456227 -1.479553 0.400228 0.000000 0.000000 0.000000 6.441844 0.011942 -6.007503 -15.532074 17.862331 12.075217 3.382032 20.025718 2.000123 0.000000 0.000000 0.000000 7.680086 -0.477929 -5.726749 -5.749591 -10.087867 -5.120402 -2.177483 -1.007480 -1.797178 -18.749083 5.601496 -33.173307 2.014867 -40.190124 1.226432 0.000000 0.000000 0.000000 7.467658 -0.221593 -5.856019 -5.678384 6.710604 5.569478 1.693898 0.982388 1.399189 -35.632492 -16.411942 38.084865 -149.900987 71.303705 150.345878 0.000000 0.000000 0.000000 
